<svg width="195" height="195" xmlns="http://www.w3.org/2000/svg" xmlns:xlink="http://www.w3.org/1999/xlink" xml:space="preserve" overflow="hidden"><defs><linearGradient x1="777.718" y1="949.563" x2="671.523" y2="1105.42" gradientUnits="userSpaceOnUse" spreadMethod="pad" id="fill0"><stop offset="0" stop-color="#090110"/><stop offset="1" stop-color="#8124D3"/></linearGradient></defs><g transform="translate(-596 -925)"><path d="M596 925 791 925 791 1120 596 1120Z" fill="#FFFFFF"/><path d="M709.626 1042.64C709.39 1045.09 708.817 1047.43 707.908 1049.66L726.504 1049.66C727.643 1049.66 728.62 1049.25 729.434 1048.44 730.248 1047.63 730.655 1046.65 730.655 1045.51 730.655 1044.33 730.248 1043.56 729.434 1043.19 728.62 1042.82 727.643 1042.64 726.504 1042.64L709.626 1042.64ZM682.626 1066.26 639.744 1066.26 639.744 978.738 683.506 978.738C687.128 978.738 690.525 979.43 693.699 980.813 696.873 982.196 699.64 984.089 702 986.489 704.4 988.849 706.293 991.616 707.676 994.79 708.542 996.777 709.137 998.853 709.461 1001.02L742.923 1001.02 742.923 1017.62 709.17 1017.62C708.031 1017.62 707.054 1018.02 706.24 1018.84 705.427 1019.65 705.02 1020.63 705.02 1021.77 705.02 1022.95 705.427 1023.96 706.24 1024.82 707.054 1025.63 708.031 1026.04 709.17 1026.04L726.504 1026.04C729.352 1026.04 732.038 1026.53 734.561 1027.51 737.084 1028.44 739.281 1029.76 741.153 1031.47 743.024 1033.18 744.51 1035.24 745.608 1037.64 746.707 1040.04 747.256 1042.66 747.256 1045.51 747.256 1048.4 746.707 1051.1 745.608 1053.63 744.51 1056.11 743.024 1058.31 741.153 1060.22 739.281 1062.09 737.084 1063.58 734.561 1064.68 732.038 1065.73 729.352 1066.26 726.504 1066.26L691.626 1066.26 688.418 1066.26 683.506 1066.26 682.626 1066.26ZM683.506 1048.74 657.261 1048.74 657.261 1031.29 683.506 1031.29C684.727 1031.29 685.866 1031.51 686.924 1031.96 687.982 1032.41 688.898 1033.04 689.671 1033.85 690.484 1034.63 691.115 1035.54 691.563 1036.6 692.01 1037.66 692.234 1038.8 692.234 1040.02 692.234 1041.24 692.01 1042.38 691.563 1043.44 691.115 1044.49 690.484 1045.43 689.671 1046.24 688.898 1047.02 687.982 1047.63 686.924 1048.07 685.866 1048.52 684.727 1048.74 683.506 1048.74ZM683.506 1013.77 657.261 1013.77 657.261 996.255 683.506 996.255C684.727 996.255 685.866 996.479 686.924 996.926 687.982 997.374 688.898 998.005 689.671 998.818 690.484 999.591 691.115 1000.51 691.563 1001.56 692.01 1002.62 692.234 1003.76 692.234 1004.98 692.234 1006.2 692.01 1007.36 691.563 1008.46 691.115 1009.52 690.484 1010.46 689.671 1011.27 688.898 1012.04 687.982 1012.65 686.924 1013.1 685.866 1013.55 684.727 1013.77 683.506 1013.77Z" fill="url(#fill0)" fill-rule="evenodd"/></g></svg>